# xmcd
#
# Track frame offsets: 
#        150
#        16018
#        28918
#        39860
#        51934
#        65169
#        77537
#        87597
#        100680
#        110497
#        122869
#        134530
#        151492
#        166324
#
# Disc length: 2443 seconds
#
# Revision: 0
# Processed by: cddbd v1.5.2PL0 Copyright (c) Steve Scherf et al.
# Submitted via: ExactAudioCopy v0.95b4
#
DISCID=b509890e
DTITLE=Various Artist - Forever Gold: Country Hits
DYEAR=2007
DGENRE=Country
TTITLE0=BJ Thomas - Another Somebody Done Somebody Wrong Song
TTITLE1=Charlie Rich - The Most Beautiful Girl In The World
TTITLE2=Don Gibson - Oh Lonesome Me
TTITLE3=Freddy Fender - Before The Next Teardrop Falls (Live)
TTITLE4=Lynn Anderson - Rose Garden
TTITLE5=Porter Wagoner - A Satisfied Mind
TTITLE6=Glen Campbell - Gentle On My Mind
TTITLE7=Kenny Rogers - Ruby Don't Take Your Love To Town
TTITLE8=Ray Price - Make The World Go Away
TTITLE9=Charlie Rich - Behind Close Doors
TTITLE10=Donna Fargo - Funny Face
TTITLE11=Glen Campbell - Southern Nights
TTITLE12=Juice Newton - Queen Of Hearts
TTITLE13=Ray Price - For The Good Times
EXTD=
EXTT0=
EXTT1=
EXTT2=
EXTT3=
EXTT4=
EXTT5=
EXTT6=
EXTT7=
EXTT8=
EXTT9=
EXTT10=
EXTT11=
EXTT12=
EXTT13=
PLAYORDER=
